<svg id="Layer_1" data-name="Layer 1" xmlns="http://www.w3.org/2000/svg" viewBox="0 0 89.96 96.66"><defs><style>.cls-1{fill:#fff;fill-rule:evenodd;}</style></defs><path class="cls-1" d="M44.6,4.86C39.52,8.09,35.22,6.24,35.67,1c.16-1.15.48-1.25.95-.3,1.86,2.77,4.37,4,7.5,1.17.73-.76.57-.82,1.26,0,2.67,2.33,6.1,2.41,7.8-1.33.36-.72.8-.7.87-.06.35,5.92-4.5,7.84-9.45,4.38ZM58.31,8.92C72.2,19.81,75,35.94,65.7,51.35c-1.15,1.53-.75,2.47,1.54.25,15.75-15.78,8.48-38-8.76-43.75-1.92-.77-1.77-.08-.17,1.07Zm-13.89,53c.27.42.32.42.59,0l2.22-3.76c5.79.69,11.27.64,15.46-1.1.5-.28.53-.69-.39-.71a32.88,32.88,0,0,1-11.75-2.11C67.86,42.41,68.9,20.67,54.77,9c-1-.9-1.12-.51-.16,1.1,8.34,12.45,5.73,29.22-6.47,39l.75-38.71L44.71,6.49l-4.17,3.94.75,38.71c-12.2-9.79-14.81-26.56-6.48-39,1-1.61.87-2-.16-1.1-14,12-13.08,33.38,4.23,45.23a32.92,32.92,0,0,1-11.75,2.11c-.92,0-.9.43-.39.71,4.19,1.74,9.67,1.79,15.45,1.1l2.23,3.76Zm-12.77-53C17.52,20.06,15,35.94,24.26,51.35c1.15,1.53.75,2.47-1.54.25C7,35.82,14.24,13.61,31.48,7.85,33.4,7.08,33.25,7.77,31.65,8.92Z"/><path class="cls-1" d="M68.58,81.79a16.48,16.48,0,0,1-.53,2.38c-.14.5-.3,1-.45,1.46a8.21,8.21,0,0,1-1,2.28,6.71,6.71,0,0,1-2.78,1.69,6.62,6.62,0,0,1-1,.31c-.13,0-.33,0-.4-.07-.37-.51,1.7-1.86,2-2.11a10.61,10.61,0,0,0,1.51-1.26,5.18,5.18,0,0,0,.9-1.27,14.55,14.55,0,0,0,.61-1.54c.27-.77.34-1.16.6-2,.06-.15.14-.34.34-.34S68.61,81.59,68.58,81.79Z"/><path class="cls-1" d="M35.43,76.68a7.22,7.22,0,0,1-1-.36c-.11-.07-.11-.18,0-.44l.92-2.32c.14-.33.57-.47,1.1-.38s1.91.6,1.91,1.22a4.25,4.25,0,0,1-1,2.34c-.33.33-1.31,1-2,1.54a16.42,16.42,0,0,0-1.93,1.81,4.78,4.78,0,0,0-.53.75c-.29.55-.15.79.4,1.06s1.43.52,1.43,1.59a11.5,11.5,0,0,1-.56,3.33,10.57,10.57,0,0,1-2.67,4.27A6.77,6.77,0,0,1,27,93,3.63,3.63,0,0,1,24,91.65a6.13,6.13,0,0,1-.77-5.35,19.3,19.3,0,0,1,1.82-4.5L26,80.08a9.41,9.41,0,0,1,.58-1,.22.22,0,0,1,.27-.08c.11.06,0,.36,0,.48-.29.71-.62,1.39-1,2.06a21.23,21.23,0,0,0-1.22,2.76c-.51,1.48-.86,3.56.64,4.62a4.09,4.09,0,0,0,2.44.6c2.2,0,4.8-1,5.76-3.19a1.37,1.37,0,0,0,.13-.52c0-.57-1.28-.7-2-1.33s-.47-1.87-.18-2.64a10,10,0,0,1,1.07-2.07A15.68,15.68,0,0,1,35.43,76.68Z"/><path class="cls-1" d="M81,81.43c-.65,1.08-1.14,2.18-1.73,3.33-.15.29-.51.4-.45,0s.34-1.13.44-1.61a1.34,1.34,0,0,0-.76-1.61,1.43,1.43,0,0,0-1.65.39,4.22,4.22,0,0,0-.58.74h0c-.58.86-1.46,2-1.72,2.4s-.68,1.44-1,2a3.31,3.31,0,0,1-2.12,1.72c-.67.25-2.1.76-2.82.93a.62.62,0,0,1-.33,0,.23.23,0,0,1-.1-.34.63.63,0,0,1,.24-.22c1-.58,2-1.12,2.88-1.64a5.19,5.19,0,0,0,2-1.9c-1.35,0-2.45-.67-1.82-2.11l.59-1.36a3.11,3.11,0,0,1,.38-.63c.79-.9,2.25.16,2.38,1.22,0,.14.08.22.2.13a11.89,11.89,0,0,0,1.64-2.33,6.19,6.19,0,0,1,1.08-1.29,2,2,0,0,1,3.12.9,5.79,5.79,0,0,1,.39-.6h0c.38-.52,1-1.46,1.72-1.54a6.39,6.39,0,0,1,.51-1,4.42,4.42,0,0,1,.88-1,7.86,7.86,0,0,1,1.31-.88,14.75,14.75,0,0,1,1.64-.82,7.63,7.63,0,0,0-1-.21A9.42,9.42,0,0,0,85,73.9a1.08,1.08,0,0,0-.68.16,2.44,2.44,0,0,0-.41.43,3.16,3.16,0,0,1-.32.37c-.16.15-.37.14-.36-.14A3.17,3.17,0,0,1,84,73.37a4.89,4.89,0,0,1,.69-.73,2.09,2.09,0,0,1,.42-.27,3.19,3.19,0,0,1,1.5-.14c.45,0,1,.11,1.6.19a12.19,12.19,0,0,1,1.34.28c.32.1.51.33.41.63a2.11,2.11,0,0,1-.17.38,1.43,1.43,0,0,1-.25.36,1.79,1.79,0,0,1-.44.32c-.54.32-1.36.7-2.07,1a14.81,14.81,0,0,0-2.26,1.21c-.32.25-.55.51-.26.89a6.15,6.15,0,0,0,.74.66c.23.21.32.36.33.51a1.51,1.51,0,0,1-.35.84,3.28,3.28,0,0,1-.52.62.48.48,0,0,1-.55.14c-.23-.07-.55-.21-.81-.31s-.39-.17-.57-.22C82,79.59,81.33,80.93,81,81.43Z"/><path class="cls-1" d="M42.11,86.18h0a9.6,9.6,0,0,1-.8,1.8c-.5.84-1.82,2.29-2.77,2.31-.48,0-1.24-.74-1.64-1.23a.53.53,0,0,1,0-.73s.15-.08.22-.17a4.5,4.5,0,0,0,.77-1.93,19.81,19.81,0,0,0,.34-3.34A12,12,0,0,1,39,79c.3-.69.44-1.11.76-1.8a1,1,0,0,1,.2-.37c.15-.13.27,0,.27.19a2.48,2.48,0,0,1-.09.58c-.14.66-.31,1.49-.42,2.32A49.77,49.77,0,0,1,39,85.61a6.91,6.91,0,0,1-1.32,2.67,3.22,3.22,0,0,0,2.62-.72,4.13,4.13,0,0,0,1.09-1.93,6.69,6.69,0,0,0,.17-1.14c.06-1,.06-2,.11-3a13.56,13.56,0,0,1,.66-4.16c.2-.5.36-1,.55-1.49,0-.13.15-.34.32-.3s.11.29.11.37c0,.3-.06.55-.1.91-.09.74-.23,1.68-.28,2.43a7.15,7.15,0,0,0,.1,2.48,2,2,0,0,0,1.93,1.57,2.2,2.2,0,0,0,2.15-1,2.4,2.4,0,0,1,.41-.43.47.47,0,0,1,.3-.1,1.84,1.84,0,0,1,.55.17.58.58,0,0,0,.32,0,1,1,0,0,0,.59-.38,4.3,4.3,0,0,0,.68-1.16c0-.1.09-.15.15-.16s.06,0,.15.07a.51.51,0,0,0,.29,0c.59-.09.63-1.4,1-1.79.12-.13.26-.13.32,0a.62.62,0,0,1,0,.25A6.2,6.2,0,0,1,51.22,81a2.31,2.31,0,0,1-1.46,1.33c-.42.61-1,1.51-1.83,1.61-.54.07-.8-.13-1.22.23a4.2,4.2,0,0,0-.81,1.17,2.34,2.34,0,0,1-1.44,1.16,2,2,0,0,1-1.2-.09,2.35,2.35,0,0,1-1-.72C42.21,85.86,42.16,86,42.11,86.18Z"/><path class="cls-1" d="M2.68,79c0,.07-.05.15-.07.21-.11.28-.22.55-.34.83a14.77,14.77,0,0,0-1,2.91,5.15,5.15,0,0,0-.11,1.37A2.7,2.7,0,0,0,2.3,86.43c1.88,1.33,4.86.8,6.66-.37a6.73,6.73,0,0,0,2.42-2.84,5.38,5.38,0,0,0,.46-2.09c0-1.08-.12-2,0-3.12a6.94,6.94,0,0,1,.43-1.59c.18-.47.38-1,.58-1.49a3.58,3.58,0,0,1,.25-.52.12.12,0,0,1,.22.06.77.77,0,0,1,0,.21c0,.23-.06.46-.08.7-.09,1.18-.08,2.37-.15,3.56a15.62,15.62,0,0,1-4,9.44,7.23,7.23,0,0,1-1.5,1.22c-1.69,1-4.34,1.37-6,.09C.15,88.57-.3,86.43.19,84.17a16.94,16.94,0,0,1,1-2.87c.27-.63.56-1.28.88-1.91.11-.22.21-.45.33-.65a.69.69,0,0,1,.11-.13.09.09,0,0,1,.08,0,.14.14,0,0,1,.13.05.43.43,0,0,1,0,.35ZM8.43,80.7a1.29,1.29,0,0,0-.26-1.28,5,5,0,0,0-1.23-.93c-.28-.17-.3-.06-.46.23-.44.8-.9,1.53-1.28,2.21-.12.23-.21.36,0,.51a14,14,0,0,1,1.23.78,1.21,1.21,0,0,0,.43.28c.11,0,.24,0,.45-.21a3.28,3.28,0,0,0,.7-.8A4.2,4.2,0,0,0,8.43,80.7Z"/><path class="cls-1" d="M65.52,75.45A4.54,4.54,0,0,1,65.06,77c-.23.46-.61,1-.81,1s-.11-.07-.16-.13-.18-.09-.31-.07a6.23,6.23,0,0,0-2.49,1.56,3.46,3.46,0,0,0-1.2,1.86c0,.18.28.34.6.5a9,9,0,0,1,.83.44,1.65,1.65,0,0,1,.77,1.33,9.18,9.18,0,0,1-.24,2.37A11.65,11.65,0,0,1,60.21,90a7.7,7.7,0,0,1-2.45,2.21,4.89,4.89,0,0,1-4.44.36,3.27,3.27,0,0,1-1-.88,5.12,5.12,0,0,1-.91-2.92,11.66,11.66,0,0,1,.74-4.41A21,21,0,0,1,53.68,81c.23-.4.46-.8.7-1.2.11-.18.25-.49.37-.73a1.66,1.66,0,0,1,.14-.23s.06-.06.08-.06.09.42.07.48a4.11,4.11,0,0,1-.17.6c-.09.23-.19.46-.28.64l-.32.68c-.41.83-.87,1.68-1.23,2.57a7.74,7.74,0,0,0-.68,3,2.89,2.89,0,0,0,.8,2.1,2.79,2.79,0,0,0,1.32.69,6.23,6.23,0,0,0,3.64-.38A5.77,5.77,0,0,0,61,86.6a2.39,2.39,0,0,0,.36-1.13c0-.24-.87-.5-1.36-.71a1.85,1.85,0,0,1-1.17-1A2.77,2.77,0,0,1,59,82.23a15,15,0,0,1,1.61-3.51c1.26-2,3.08-3.78,4.54-3.85C65.41,74.86,65.5,75.17,65.52,75.45Z"/><path class="cls-1" d="M56.26,68.89l.6-1.63c0-.15.16-.59.36-.56s.12.11.09.33-.05.28-.07.42-.09.52-.12.8c-.2,2-.12,4.11-.48,6.13A12,12,0,0,1,56,76.67c-.12.3-.25.59-.38.88s-.46.38-.39-.1a25.81,25.81,0,0,0,.46-3.39c.05-1.17.05-2.44.15-3.41A6.51,6.51,0,0,1,56.26,68.89Z"/><path class="cls-1" d="M28.39,69.09l.6-1.63c.05-.15.16-.59.36-.56s.12.11.09.33a3.07,3.07,0,0,1-.07.42c-.05.25-.09.52-.12.8-.2,2-.12,4.11-.48,6.13a11.35,11.35,0,0,1-.67,2.29c-.12.3-.25.59-.38.88s-.46.38-.38-.1a25.79,25.79,0,0,0,.45-3.39c.05-1.17.05-2.44.15-3.41A6.9,6.9,0,0,1,28.39,69.09Z"/><path class="cls-1" d="M23.47,79.57a8.41,8.41,0,0,1-.31,1.18,5,5,0,0,1-1,2,6.79,6.79,0,0,1-1.4,1,3.41,3.41,0,0,0-1.2.91A8.28,8.28,0,0,0,19,85.8c-.27.58-.45,1.14-.69,1.74a2.91,2.91,0,0,1-1.91,1.95,10.77,10.77,0,0,1-2.76.59c-.68,0-.6-.56-.23-.9a19.21,19.21,0,0,1,2.1-1.35,13.26,13.26,0,0,0,1.85-1.25,4.4,4.4,0,0,0,1.14-1.78,10,10,0,0,1,1.27-2.39,6.4,6.4,0,0,1,1.44-1,5.53,5.53,0,0,0,1.07-.67,4.52,4.52,0,0,0,.56-1,1,1,0,0,1,.33-.4C23.3,79.27,23.49,79.3,23.47,79.57Z"/><path class="cls-1" d="M16.94,74.38l.63-1.72c.06-.17.18-.64.39-.6s.13.11.1.35,0,.3-.08.45-.09.55-.12.85c-.22,2.17-.13,4.37-.52,6.52a11.81,11.81,0,0,1-.71,2.44c-.13.32-.26.63-.41.94s-.49.4-.4-.11a29,29,0,0,0,.48-3.61c.05-1.24.06-2.59.16-3.62A7.49,7.49,0,0,1,16.94,74.38Z"/><path class="cls-1" d="M17.4,96.46c-.22.22-.36.24-.49.15a2.47,2.47,0,0,1-.35-.33,10.16,10.16,0,0,1-.79-.7c-.18-.2-.19-.27-.07-.5.35-.71.78-1.45,1.19-2.28.15-.3.17-.41.4-.23a4,4,0,0,1,1,1c.69,1-.21,2.25-.88,2.91Zm2.89-.39c.67-.67,1.57-1.88.88-2.92a4.38,4.38,0,0,0-1-1c-.23-.17-.25-.07-.4.24-.41.82-.84,1.57-1.19,2.27-.12.23-.11.3.07.51a8.67,8.67,0,0,0,.79.69,2.68,2.68,0,0,0,.35.34C19.93,96.3,20.06,96.28,20.29,96.07Z"/><path class="cls-1" d="M84.32,92c-.22.2-.35.22-.49.14a2.6,2.6,0,0,1-.34-.3,9.87,9.87,0,0,1-.8-.65c-.18-.19-.18-.25-.07-.46.36-.65.79-1.34,1.2-2.1.15-.29.17-.38.4-.22a3.83,3.83,0,0,1,1,.9C85.89,90.27,85,91.38,84.32,92Z"/></svg>